<?xml version="1.0" encoding="iso-8859-1" standalone="yes"?><!-- Generator: Adobe Illustrator 18.1.1, SVG Export Plug-In . SVG Version: 6.00 Build 0)  --><svg xmlns="http://www.w3.org/2000/svg" xmlns:xlink="http://www.w3.org/1999/xlink" xmlns:figma="http://www.figma.com/figma/ns" version="1.1" x="0px" y="0px" width="90px" height="90px" viewBox="0 0 19.932 19.932" style="enable-background:new 0 0 19.932 19.932;zoom: 1;" xml:space="preserve"><circle stroke="none" visibility="visible" id="circle1" cy="10.1536px" stroke-width="3px" fill="#F37726" r="5.809385px" cx="8.987074px" transform=""></circle><g visibility="visible"><g transform="scale(0.3, 0.3) translate(10, 10)" visibility="visible"><g id="Canvas" transform="translate(-1638 -2281)" figma:type="canvas"><g id="logo" style="mix-blend-mode:normal;" figma:type="group"><g id="g" style="mix-blend-mode:normal;" figma:type="group"><g id="path" style="mix-blend-mode:normal;" figma:type="group"><g id="path7 fill" style="mix-blend-mode:normal;" figma:type="vector" visibility="visible"><use xlink:href="#path0_fill" transform="translate(1669.3 2281.31)" fill="#767677" style="mix-blend-mode:normal;"></use></g></g><g id="path" style="mix-blend-mode:normal;" figma:type="group"><g id="path8 fill" style="mix-blend-mode:normal;" figma:type="vector"></g></g><g id="path" style="mix-blend-mode:normal;" figma:type="group"><g id="path9 fill" style="mix-blend-mode:normal;" figma:type="vector" visibility="visible"></g></g><g id="path" style="mix-blend-mode:normal;" figma:type="group"><g id="path10 fill" style="mix-blend-mode:normal;" figma:type="vector"><use xlink:href="#path3_fill" transform="translate(1639.8 2323.81)" fill="#989798" style="mix-blend-mode:normal;"></use></g></g><g id="path" style="mix-blend-mode:normal;" figma:type="group"><g id="path11 fill" style="mix-blend-mode:normal;" figma:type="vector"><use xlink:href="#path4_fill" transform="translate(1638.36 2286.06)" fill="#6F7070" style="mix-blend-mode:normal;"></use></g></g></g></g></g><defs><path id="path0_fill" d="M 5.89353 2.844C 5.91889 3.43165 5.77085 4.01367 5.46815 4.51645C 5.16545 5.01922 4.72168 5.42015 4.19299 5.66851C 3.6643 5.91688 3.07444 6.00151 2.49805 5.91171C 1.92166 5.8219 1.38463 5.5617 0.954898 5.16401C 0.52517 4.76633 0.222056 4.24903 0.0839037 3.67757C -0.0542483 3.10611 -0.02123 2.50617 0.178781 1.95364C 0.378793 1.4011 0.736809 0.920817 1.20754 0.573538C 1.67826 0.226259 2.24055 0.0275919 2.82326 0.00267229C 3.60389 -0.0307115 4.36573 0.249789 4.94142 0.782551C 5.51711 1.31531 5.85956 2.05676 5.89353 2.844Z"></path><path id="path1_fill" d="M 18.2646 7.13411C 10.4145 7.13411 3.55872 4.2576 0 0C 1.32539 3.8204 3.79556 7.13081 7.0686 9.47303C 10.3417 11.8152 14.2557 13.0734 18.269 13.0734C 22.2823 13.0734 26.1963 11.8152 29.4694 9.47303C 32.7424 7.13081 35.2126 3.8204 36.538 0C 32.9705 4.2576 26.1148 7.13411 18.2646 7.13411Z"></path><path id="path2_fill" d="M 18.2733 5.93931C 26.1235 5.93931 32.9793 8.81583 36.538 13.0734C 35.2126 9.25303 32.7424 5.94262 29.4694 3.6004C 26.1963 1.25818 22.2823 0 18.269 0C 14.2557 0 10.3417 1.25818 7.0686 3.6004C 3.79556 5.94262 1.32539 9.25303 0 13.0734C 3.56745 8.82463 10.4232 5.93931 18.2733 5.93931Z"></path><path id="path3_fill" d="M 7.42789 3.58338C 7.46008 4.3243 7.27355 5.05819 6.89193 5.69213C 6.51031 6.32607 5.95075 6.83156 5.28411 7.1446C 4.61747 7.45763 3.87371 7.56414 3.14702 7.45063C 2.42032 7.33712 1.74336 7.0087 1.20184 6.50695C 0.660328 6.0052 0.27861 5.35268 0.105017 4.63202C -0.0685757 3.91135 -0.0262361 3.15494 0.226675 2.45856C 0.479587 1.76217 0.931697 1.15713 1.52576 0.720033C 2.11983 0.282935 2.82914 0.0334395 3.56389 0.00313344C 4.54667 -0.0374033 5.50529 0.316706 6.22961 0.987835C 6.95393 1.65896 7.38484 2.59235 7.42789 3.58338L 7.42789 3.58338Z"></path><path id="path4_fill" d="M 2.27471 4.39629C 1.84363 4.41508 1.41671 4.30445 1.04799 4.07843C 0.679268 3.8524 0.385328 3.52114 0.203371 3.12656C 0.0214136 2.73198 -0.0403798 2.29183 0.0258116 1.86181C 0.0920031 1.4318 0.283204 1.03126 0.575213 0.710883C 0.867222 0.39051 1.24691 0.164708 1.66622 0.0620592C 2.08553 -0.0405897 2.52561 -0.0154714 2.93076 0.134235C 3.33591 0.283941 3.68792 0.551505 3.94222 0.90306C 4.19652 1.25462 4.34169 1.67436 4.35935 2.10916C 4.38299 2.69107 4.17678 3.25869 3.78597 3.68746C 3.39516 4.11624 2.85166 4.37116 2.27471 4.39629L 2.27471 4.39629Z"></path></defs></g><g visibility="visible"><path d="M13.089,9.551 V9.262 h0.227 V8.936 h-0.34 V8.562 h-0.34 V7.756 h0.275 V7.482 h-0.812 l-0.627,-1.86 V4.973 h-0.244 l-1.179,-3.639 h-0.038 V1.17 c0.086,-0.019 0.148,-0.096 0.148,-0.188 c0,-0.094 -0.062,-0.17 -0.148,-0.188 V0 H9.927 v0.793 c-0.088,0.02 -0.152,0.096 -0.152,0.189 s0.063,0.17 0.151,0.188 v0.164 h-0.04 L8.705,4.973 H8.466 v0.648 l-0.634,1.86 H7.024 v0.273 h0.275 v0.807 H6.958 v0.373 H6.617 V9.26 h0.229 v0.289 h0.112 v2.072 H6.616 v0.321 h0.229 v0.291 h0.112 v7.699 h6.021 v-7.699 h0.111 v-0.291 h0.227 v-0.321 h-0.34 v-2.07 H13.089 M8.112,8.094 c0.162,0 0.294,0.133 0.294,0.293 c0,0.021 -0.002,0.035 -0.004,0.055 v0.607 H7.821 V8.441 C7.817,8.422 7.816,8.406 7.816,8.387 C7.816,8.227 7.949,8.094 8.112,8.094 M7.979,14 v0.483 H7.517 V14 c-0.004,-0.017 -0.004,-0.027 -0.004,-0.045 c0,-0.127 0.104,-0.232 0.232,-0.232 c0.132,0 0.236,0.105 0.236,0.232 C7.983,13.973 7.981,13.984 7.979,14 M8.576,10.463 v0.889 h-0.85 v-0.889 c-0.004,-0.025 -0.008,-0.051 -0.008,-0.076 c0,-0.24 0.193,-0.434 0.434,-0.434 c0.237,0 0.433,0.192 0.433,0.434 C8.585,10.412 8.581,10.438 8.576,10.463 M9.078,8.387 c0,-0.16 0.132,-0.293 0.294,-0.293 c0.165,0 0.294,0.133 0.294,0.293 c0,0.021 0,0.035 -0.003,0.055 v0.607 H9.082 V8.441 C9.08,8.422 9.078,8.406 9.078,8.387 M10.234,14 v0.483 h-0.46 V14 c-0.004,-0.017 -0.006,-0.027 -0.006,-0.045 c0,-0.127 0.104,-0.232 0.235,-0.232 c0.128,0 0.233,0.105 0.233,0.232 C10.238,13.973 10.238,13.984 10.234,14 M10.429,10.463 v0.889 h-0.85 v-0.889 c-0.004,-0.025 -0.006,-0.051 -0.006,-0.076 c0,-0.24 0.191,-0.434 0.432,-0.434 c0.237,0 0.432,0.192 0.432,0.434 C10.436,10.412 10.432,10.438 10.429,10.463 M10.925,8.441 v0.607 h-0.58 V8.441 c-0.003,-0.02 -0.005,-0.034 -0.005,-0.055 c0,-0.16 0.132,-0.293 0.296,-0.293 c0.162,0 0.295,0.133 0.295,0.293 C10.931,8.406 10.927,8.422 10.925,8.441 M11.896,8.094 c0.164,0 0.293,0.133 0.293,0.293 c0,0.021 -0.002,0.035 -0.002,0.055 v0.607 h-0.578 V8.441 c-0.006,-0.02 -0.006,-0.034 -0.006,-0.055 C11.603,8.227 11.734,8.094 11.896,8.094 M11.425,10.387 c0,-0.24 0.189,-0.434 0.432,-0.434 c0.238,0 0.432,0.192 0.432,0.434 c0,0.025 -0.004,0.051 -0.008,0.076 v0.889 h-0.85 v-0.889 C11.429,10.438 11.425,10.412 11.425,10.387 M12.49,14 v0.483 h-0.459 V14 c-0.006,-0.017 -0.006,-0.027 -0.006,-0.045 c0,-0.127 0.105,-0.232 0.234,-0.232 c0.129,0 0.234,0.105 0.234,0.232 C12.494,13.973 12.492,13.984 12.49,14 " style="fill:#cabcac; stroke-width:0.3; stroke:#404040; "></path></g></g></svg>